<mxfile host="app.diagrams.net" modified="2023-06-01T07:43:21.628Z" agent="Mozilla/5.0 (Windows NT 10.0; Win64; x64) AppleWebKit/537.36 (KHTML, like Gecko) Chrome/113.0.0.0 Safari/537.36" etag="lQWndrhAK6UmQEslMtS2" version="21.3.6" type="github">
  <diagram name="Page-1" id="meLa8t4qcpy8yvbnTHO6">
    <mxGraphModel dx="1034" dy="462" grid="1" gridSize="10" guides="1" tooltips="1" connect="1" arrows="1" fold="1" page="1" pageScale="1" pageWidth="827" pageHeight="1169" math="0" shadow="0">
      <root>
        <mxCell id="0" />
        <mxCell id="1" parent="0" />
        <mxCell id="_Za7DTcIUykQFjGMB1_k-1" value="&lt;font style=&quot;font-size: 18px;&quot;&gt;客户端&lt;/font&gt;" style="rounded=0;whiteSpace=wrap;html=1;" vertex="1" parent="1">
          <mxGeometry x="140" y="100" width="130" height="60" as="geometry" />
        </mxCell>
        <mxCell id="_Za7DTcIUykQFjGMB1_k-4" value="" style="endArrow=classic;html=1;rounded=0;exitX=0.994;exitY=0.4;exitDx=0;exitDy=0;entryX=0;entryY=0.381;entryDx=0;entryDy=0;exitPerimeter=0;entryPerimeter=0;" edge="1" parent="1" source="_Za7DTcIUykQFjGMB1_k-1" target="_Za7DTcIUykQFjGMB1_k-6">
          <mxGeometry width="50" height="50" relative="1" as="geometry">
            <mxPoint x="390" y="270" as="sourcePoint" />
            <mxPoint x="437.78999999999996" y="128" as="targetPoint" />
          </mxGeometry>
        </mxCell>
        <mxCell id="_Za7DTcIUykQFjGMB1_k-5" value="" style="endArrow=classic;html=1;rounded=0;" edge="1" parent="1">
          <mxGeometry width="50" height="50" relative="1" as="geometry">
            <mxPoint x="440" y="145" as="sourcePoint" />
            <mxPoint x="270" y="145" as="targetPoint" />
          </mxGeometry>
        </mxCell>
        <mxCell id="_Za7DTcIUykQFjGMB1_k-6" value="&lt;font style=&quot;font-size: 24px;&quot;&gt;web服务器&lt;/font&gt;" style="rounded=0;whiteSpace=wrap;html=1;" vertex="1" parent="1">
          <mxGeometry x="440" y="100" width="130" height="60" as="geometry" />
        </mxCell>
        <mxCell id="_Za7DTcIUykQFjGMB1_k-7" value="&lt;font style=&quot;font-size: 24px;&quot;&gt;数据库检索&lt;/font&gt;" style="rounded=0;whiteSpace=wrap;html=1;" vertex="1" parent="1">
          <mxGeometry x="300" y="270" width="130" height="70" as="geometry" />
        </mxCell>
        <mxCell id="_Za7DTcIUykQFjGMB1_k-8" value="" style="endArrow=classic;html=1;rounded=0;exitX=0.75;exitY=1;exitDx=0;exitDy=0;entryX=0.75;entryY=0;entryDx=0;entryDy=0;" edge="1" parent="1" source="_Za7DTcIUykQFjGMB1_k-6" target="_Za7DTcIUykQFjGMB1_k-7">
          <mxGeometry width="50" height="50" relative="1" as="geometry">
            <mxPoint x="670" y="290" as="sourcePoint" />
            <mxPoint x="500" y="290" as="targetPoint" />
          </mxGeometry>
        </mxCell>
        <mxCell id="_Za7DTcIUykQFjGMB1_k-9" value="" style="endArrow=classic;html=1;rounded=0;exitX=0.5;exitY=0;exitDx=0;exitDy=0;entryX=0.5;entryY=1;entryDx=0;entryDy=0;" edge="1" parent="1" source="_Za7DTcIUykQFjGMB1_k-7" target="_Za7DTcIUykQFjGMB1_k-6">
          <mxGeometry width="50" height="50" relative="1" as="geometry">
            <mxPoint x="548" y="180" as="sourcePoint" />
            <mxPoint x="394" y="279" as="targetPoint" />
          </mxGeometry>
        </mxCell>
        <mxCell id="_Za7DTcIUykQFjGMB1_k-10" value="&lt;font style=&quot;font-size: 18px;&quot;&gt;请求&lt;/font&gt;" style="text;html=1;align=center;verticalAlign=middle;resizable=0;points=[];autosize=1;strokeColor=none;fillColor=none;" vertex="1" parent="1">
          <mxGeometry x="320" y="95" width="60" height="40" as="geometry" />
        </mxCell>
        <mxCell id="_Za7DTcIUykQFjGMB1_k-11" value="&lt;font style=&quot;font-size: 18px;&quot;&gt;回发&lt;/font&gt;" style="text;html=1;align=center;verticalAlign=middle;resizable=0;points=[];autosize=1;strokeColor=none;fillColor=none;" vertex="1" parent="1">
          <mxGeometry x="320" y="135" width="60" height="40" as="geometry" />
        </mxCell>
        <mxCell id="_Za7DTcIUykQFjGMB1_k-12" value="&lt;font style=&quot;font-size: 18px;&quot;&gt;验证&lt;/font&gt;" style="text;html=1;align=center;verticalAlign=middle;resizable=0;points=[];autosize=1;strokeColor=none;fillColor=none;" vertex="1" parent="1">
          <mxGeometry x="384" y="190" width="60" height="40" as="geometry" />
        </mxCell>
        <mxCell id="_Za7DTcIUykQFjGMB1_k-13" value="&lt;font style=&quot;font-size: 18px;&quot;&gt;传送&lt;/font&gt;" style="text;html=1;align=center;verticalAlign=middle;resizable=0;points=[];autosize=1;strokeColor=none;fillColor=none;" vertex="1" parent="1">
          <mxGeometry x="450" y="210" width="60" height="40" as="geometry" />
        </mxCell>
      </root>
    </mxGraphModel>
  </diagram>
</mxfile>
